<svg xmlns="http://www.w3.org/2000/svg" viewBox="0 0 48 48" width="48" height="48" fill="none">
  <!-- Minimal geometric brain — two hemispheres with neural pathways -->
  <g stroke="white" stroke-width="1" stroke-linecap="round" opacity="0.7">
    <!-- Left hemisphere -->
    <path d="M24 8C18 8 12 12 12 20C12 28 18 36 24 40"/>
    <path d="M12 20C10 18 9 15 10 12"/>
    <path d="M14 28C11 27 9 24 10 21"/>
    <!-- Right hemisphere -->
    <path d="M24 8C30 8 36 12 36 20C36 28 30 36 24 40"/>
    <path d="M36 20C38 18 39 15 38 12"/>
    <path d="M34 28C37 27 39 24 38 21"/>
    <!-- Center line -->
    <line x1="24" y1="8" x2="24" y2="40" stroke-width="0.5" opacity="0.3"/>
    <!-- Neural nodes -->
    <circle cx="18" cy="16" r="1" fill="white" opacity="0.4"/>
    <circle cx="30" cy="16" r="1" fill="white" opacity="0.4"/>
    <circle cx="16" cy="24" r="1" fill="white" opacity="0.4"/>
    <circle cx="32" cy="24" r="1" fill="white" opacity="0.4"/>
    <circle cx="20" cy="32" r="1" fill="white" opacity="0.4"/>
    <circle cx="28" cy="32" r="1" fill="white" opacity="0.4"/>
  </g>
</svg>
